<svg width="800" height="520" viewBox="0 0 800 520" fill="none" xmlns="http://www.w3.org/2000/svg">
  <rect width="800" height="520" rx="28" fill="#0B1019"/>
  <rect x="28" y="28" width="744" height="464" rx="22" fill="url(#paint0_linear)"/>
  <rect x="60" y="60" width="270" height="36" rx="18" fill="#182132"/>
  <text x="84" y="85" fill="#7EE0FF" font-family="Arial, sans-serif" font-size="23" font-weight="700">Enterprise Underwriting Reports</text>
  <text x="60" y="144" fill="white" font-family="Arial, sans-serif" font-size="40" font-weight="700">Insurance Policy Dashboard</text>
  <text x="60" y="182" fill="#C6D8F4" font-family="Arial, sans-serif" font-size="24">Java Servlet application for underwriting and report management.</text>
  <rect x="60" y="236" width="680" height="184" rx="22" fill="#0E1728" stroke="#4C6FFF"/>
  <rect x="88" y="264" width="180" height="124" rx="16" fill="#141F34"/>
  <rect x="296" y="264" width="188" height="24" rx="12" fill="#DDE7FF"/>
  <rect x="296" y="306" width="240" height="14" rx="7" fill="#7C95E8"/>
  <rect x="296" y="336" width="214" height="14" rx="7" fill="#7C95E8"/>
  <rect x="296" y="366" width="258" height="14" rx="7" fill="#7C95E8"/>
  <rect x="564" y="264" width="144" height="124" rx="16" fill="#141F34"/>
  <path d="M600 360V306" stroke="#7EE0FF" stroke-width="10" stroke-linecap="round"/>
  <path d="M636 360V286" stroke="#7EE0FF" stroke-width="10" stroke-linecap="round"/>
  <path d="M672 360V326" stroke="#7EE0FF" stroke-width="10" stroke-linecap="round"/>
  <rect x="106" y="284" width="144" height="20" rx="10" fill="#DDE7FF"/>
  <rect x="106" y="320" width="112" height="12" rx="6" fill="#7C95E8"/>
  <rect x="106" y="344" width="126" height="12" rx="6" fill="#7C95E8"/>
  <rect x="60" y="444" width="200" height="38" rx="19" fill="#4C6FFF"/>
  <text x="106" y="469" fill="white" font-family="Arial, sans-serif" font-size="20" font-weight="700">Policy Reports</text>
  <defs>
    <linearGradient id="paint0_linear" x1="28" y1="28" x2="772" y2="492" gradientUnits="userSpaceOnUse">
      <stop stop-color="#101827"/>
      <stop offset="1" stop-color="#1A2740"/>
    </linearGradient>
  </defs>
</svg>
