<svg width="800" height="520" viewBox="0 0 800 520" fill="none" xmlns="http://www.w3.org/2000/svg">
  <rect width="800" height="520" rx="28" fill="#08161A"/>
  <rect x="28" y="28" width="744" height="464" rx="22" fill="url(#paint0_linear)"/>
  <rect x="58" y="62" width="210" height="34" rx="17" fill="#10343B"/>
  <text x="83" y="85" fill="#7DEEE4" font-family="Arial, sans-serif" font-size="24" font-weight="700">ReclaimHub</text>
  <text x="60" y="140" fill="white" font-family="Arial, sans-serif" font-size="42" font-weight="700">Lost and Found</text>
  <text x="60" y="180" fill="#BFECE7" font-family="Arial, sans-serif" font-size="24">Report, search, and recover items with a clean web workflow.</text>
  <rect x="60" y="228" width="188" height="154" rx="18" fill="#0B252B" stroke="#39D0C2"/>
  <rect x="278" y="228" width="208" height="154" rx="18" fill="#0B252B" stroke="#39D0C2"/>
  <rect x="516" y="228" width="224" height="154" rx="18" fill="#0B252B" stroke="#39D0C2"/>
  <circle cx="113" cy="280" r="22" fill="#39D0C2"/>
  <rect x="96" y="314" width="118" height="16" rx="8" fill="#D5FFFB"/>
  <rect x="96" y="340" width="92" height="12" rx="6" fill="#75B8B1"/>
  <rect x="306" y="266" width="154" height="18" rx="9" fill="#D5FFFB"/>
  <rect x="306" y="298" width="126" height="12" rx="6" fill="#75B8B1"/>
  <rect x="306" y="322" width="144" height="12" rx="6" fill="#75B8B1"/>
  <rect x="546" y="266" width="164" height="74" rx="14" fill="#10343B"/>
  <path d="M580 294H675" stroke="#7DEEE4" stroke-width="12" stroke-linecap="round"/>
  <path d="M580 320H645" stroke="#7DEEE4" stroke-width="12" stroke-linecap="round"/>
  <rect x="60" y="412" width="164" height="40" rx="20" fill="#39D0C2"/>
  <text x="95" y="439" fill="#06252A" font-family="Arial, sans-serif" font-size="20" font-weight="700">Track Items</text>
  <defs>
    <linearGradient id="paint0_linear" x1="28" y1="28" x2="772" y2="492" gradientUnits="userSpaceOnUse">
      <stop stop-color="#0B1E22"/>
      <stop offset="1" stop-color="#10343B"/>
    </linearGradient>
  </defs>
</svg>
